<mxfile host="app.diagrams.net" modified="2022-12-07T18:34:34.719Z" agent="5.0 (Windows NT 10.0; Win64; x64) AppleWebKit/537.36 (KHTML, like Gecko) Chrome/108.0.0.0 Safari/537.36" etag="RviPhrfqnz6kic_TRWvn" version="20.6.0" type="github">
  <diagram id="2zHvBWxBgFCYUnNaGsA4" name="Page-1">
    <mxGraphModel dx="2347" dy="699" grid="0" gridSize="10" guides="1" tooltips="1" connect="1" arrows="1" fold="1" page="1" pageScale="1" pageWidth="1100" pageHeight="850" math="0" shadow="0">
      <root>
        <mxCell id="0" />
        <mxCell id="1" parent="0" />
        <mxCell id="7yc6JBUBzXzbdUPnqlZ5-1" value="EMPLOYEE" style="swimlane;fontStyle=1;align=center;verticalAlign=top;childLayout=stackLayout;horizontal=1;startSize=26;horizontalStack=0;resizeParent=1;resizeLast=0;collapsible=1;marginBottom=0;rounded=0;shadow=0;strokeWidth=1;" vertex="1" parent="1">
          <mxGeometry x="518" y="130" width="160" height="270" as="geometry">
            <mxRectangle x="550" y="140" width="160" height="26" as="alternateBounds" />
          </mxGeometry>
        </mxCell>
        <mxCell id="7yc6JBUBzXzbdUPnqlZ5-2" value="EmployeeID" style="text;align=left;verticalAlign=top;spacingLeft=4;spacingRight=4;overflow=hidden;rotatable=0;points=[[0,0.5],[1,0.5]];portConstraint=eastwest;" vertex="1" parent="7yc6JBUBzXzbdUPnqlZ5-1">
          <mxGeometry y="26" width="160" height="26" as="geometry" />
        </mxCell>
        <mxCell id="7yc6JBUBzXzbdUPnqlZ5-3" value="" style="endArrow=none;html=1;rounded=0;" edge="1" parent="7yc6JBUBzXzbdUPnqlZ5-1">
          <mxGeometry width="50" height="50" relative="1" as="geometry">
            <mxPoint x="2" y="51" as="sourcePoint" />
            <mxPoint x="92" y="51" as="targetPoint" />
          </mxGeometry>
        </mxCell>
        <mxCell id="7yc6JBUBzXzbdUPnqlZ5-4" value="First_Name" style="text;align=left;verticalAlign=top;spacingLeft=4;spacingRight=4;overflow=hidden;rotatable=0;points=[[0,0.5],[1,0.5]];portConstraint=eastwest;rounded=0;shadow=0;html=0;" vertex="1" parent="7yc6JBUBzXzbdUPnqlZ5-1">
          <mxGeometry y="52" width="160" height="26" as="geometry" />
        </mxCell>
        <mxCell id="7yc6JBUBzXzbdUPnqlZ5-5" value="Last_Name" style="text;align=left;verticalAlign=top;spacingLeft=4;spacingRight=4;overflow=hidden;rotatable=0;points=[[0,0.5],[1,0.5]];portConstraint=eastwest;rounded=0;shadow=0;html=0;" vertex="1" parent="7yc6JBUBzXzbdUPnqlZ5-1">
          <mxGeometry y="78" width="160" height="26" as="geometry" />
        </mxCell>
        <mxCell id="7yc6JBUBzXzbdUPnqlZ5-6" value="Date_Of_Birth" style="text;align=left;verticalAlign=top;spacingLeft=4;spacingRight=4;overflow=hidden;rotatable=0;points=[[0,0.5],[1,0.5]];portConstraint=eastwest;rounded=0;shadow=0;html=0;" vertex="1" parent="7yc6JBUBzXzbdUPnqlZ5-1">
          <mxGeometry y="104" width="160" height="26" as="geometry" />
        </mxCell>
        <mxCell id="7yc6JBUBzXzbdUPnqlZ5-7" value="Gender&#xa;" style="text;align=left;verticalAlign=top;spacingLeft=4;spacingRight=4;overflow=hidden;rotatable=0;points=[[0,0.5],[1,0.5]];portConstraint=eastwest;rounded=0;shadow=0;html=0;" vertex="1" parent="7yc6JBUBzXzbdUPnqlZ5-1">
          <mxGeometry y="130" width="160" height="26" as="geometry" />
        </mxCell>
        <mxCell id="7yc6JBUBzXzbdUPnqlZ5-8" value="Email" style="text;align=left;verticalAlign=top;spacingLeft=4;spacingRight=4;overflow=hidden;rotatable=0;points=[[0,0.5],[1,0.5]];portConstraint=eastwest;" vertex="1" parent="7yc6JBUBzXzbdUPnqlZ5-1">
          <mxGeometry y="156" width="160" height="26" as="geometry" />
        </mxCell>
        <mxCell id="7yc6JBUBzXzbdUPnqlZ5-9" value="Phone" style="text;align=left;verticalAlign=top;spacingLeft=4;spacingRight=4;overflow=hidden;rotatable=0;points=[[0,0.5],[1,0.5]];portConstraint=eastwest;" vertex="1" parent="7yc6JBUBzXzbdUPnqlZ5-1">
          <mxGeometry y="182" width="160" height="28" as="geometry" />
        </mxCell>
        <mxCell id="7yc6JBUBzXzbdUPnqlZ5-10" value="&amp;nbsp;Address" style="text;html=1;align=left;verticalAlign=top;resizable=0;points=[];autosize=1;strokeColor=none;fillColor=none;" vertex="1" parent="7yc6JBUBzXzbdUPnqlZ5-1">
          <mxGeometry y="210" width="160" height="30" as="geometry" />
        </mxCell>
        <mxCell id="7yc6JBUBzXzbdUPnqlZ5-11" value="&amp;nbsp;Employee_Type" style="text;html=1;align=left;verticalAlign=top;resizable=0;points=[];autosize=1;strokeColor=none;fillColor=none;" vertex="1" parent="7yc6JBUBzXzbdUPnqlZ5-1">
          <mxGeometry y="240" width="160" height="30" as="geometry" />
        </mxCell>
        <mxCell id="7yc6JBUBzXzbdUPnqlZ5-12" value="" style="endArrow=none;html=1;rounded=0;entryX=0.461;entryY=0.994;entryDx=0;entryDy=0;entryPerimeter=0;" edge="1" parent="1" target="7yc6JBUBzXzbdUPnqlZ5-11">
          <mxGeometry width="50" height="50" relative="1" as="geometry">
            <mxPoint x="592" y="480" as="sourcePoint" />
            <mxPoint x="640" y="420" as="targetPoint" />
          </mxGeometry>
        </mxCell>
        <mxCell id="7yc6JBUBzXzbdUPnqlZ5-13" value="d" style="ellipse;whiteSpace=wrap;html=1;aspect=fixed;" vertex="1" parent="1">
          <mxGeometry x="570" y="468" width="40" height="40" as="geometry" />
        </mxCell>
        <mxCell id="7yc6JBUBzXzbdUPnqlZ5-14" value="" style="endArrow=none;html=1;rounded=0;edgeStyle=orthogonalEdgeStyle;entryX=0;entryY=0.55;entryDx=0;entryDy=0;entryPerimeter=0;" edge="1" parent="1" target="7yc6JBUBzXzbdUPnqlZ5-13">
          <mxGeometry width="50" height="50" relative="1" as="geometry">
            <mxPoint x="460" y="600" as="sourcePoint" />
            <mxPoint x="560" y="490" as="targetPoint" />
            <Array as="points">
              <mxPoint x="460" y="490" />
            </Array>
          </mxGeometry>
        </mxCell>
        <mxCell id="7yc6JBUBzXzbdUPnqlZ5-15" value="ADMIN" style="swimlane;fontStyle=1;align=center;verticalAlign=top;childLayout=stackLayout;horizontal=1;startSize=26;horizontalStack=0;resizeParent=1;resizeLast=0;collapsible=1;marginBottom=0;rounded=0;shadow=0;strokeWidth=1;" vertex="1" parent="1">
          <mxGeometry x="400" y="595" width="160" height="158" as="geometry">
            <mxRectangle x="550" y="140" width="160" height="26" as="alternateBounds" />
          </mxGeometry>
        </mxCell>
        <mxCell id="7yc6JBUBzXzbdUPnqlZ5-16" value="AdminID" style="text;align=left;verticalAlign=top;spacingLeft=4;spacingRight=4;overflow=hidden;rotatable=0;points=[[0,0.5],[1,0.5]];portConstraint=eastwest;" vertex="1" parent="7yc6JBUBzXzbdUPnqlZ5-15">
          <mxGeometry y="26" width="160" height="24" as="geometry" />
        </mxCell>
        <mxCell id="7yc6JBUBzXzbdUPnqlZ5-17" value="" style="endArrow=none;html=1;rounded=0;" edge="1" parent="7yc6JBUBzXzbdUPnqlZ5-15">
          <mxGeometry width="50" height="50" relative="1" as="geometry">
            <mxPoint x="2" y="51" as="sourcePoint" />
            <mxPoint x="92" y="51" as="targetPoint" />
          </mxGeometry>
        </mxCell>
        <mxCell id="7yc6JBUBzXzbdUPnqlZ5-18" value="Rank" style="text;align=left;verticalAlign=top;spacingLeft=4;spacingRight=4;overflow=hidden;rotatable=0;points=[[0,0.5],[1,0.5]];portConstraint=eastwest;rounded=0;shadow=0;html=0;" vertex="1" parent="7yc6JBUBzXzbdUPnqlZ5-15">
          <mxGeometry y="50" width="160" height="26" as="geometry" />
        </mxCell>
        <mxCell id="7yc6JBUBzXzbdUPnqlZ5-19" value="Join_DateÂ " style="text;align=left;verticalAlign=top;spacingLeft=4;spacingRight=4;overflow=hidden;rotatable=0;points=[[0,0.5],[1,0.5]];portConstraint=eastwest;rounded=0;shadow=0;html=0;" vertex="1" parent="7yc6JBUBzXzbdUPnqlZ5-15">
          <mxGeometry y="76" width="160" height="22" as="geometry" />
        </mxCell>
        <mxCell id="7yc6JBUBzXzbdUPnqlZ5-20" value="&amp;nbsp;Admin_Type" style="text;html=1;align=left;verticalAlign=middle;resizable=0;points=[];autosize=1;strokeColor=none;fillColor=none;" vertex="1" parent="7yc6JBUBzXzbdUPnqlZ5-15">
          <mxGeometry y="98" width="160" height="30" as="geometry" />
        </mxCell>
        <mxCell id="7yc6JBUBzXzbdUPnqlZ5-21" value="&amp;nbsp;End_Date" style="text;html=1;align=left;verticalAlign=middle;resizable=0;points=[];autosize=1;strokeColor=none;fillColor=none;" vertex="1" parent="7yc6JBUBzXzbdUPnqlZ5-15">
          <mxGeometry y="128" width="160" height="30" as="geometry" />
        </mxCell>
        <mxCell id="7yc6JBUBzXzbdUPnqlZ5-22" style="edgeStyle=elbowEdgeStyle;rounded=0;orthogonalLoop=1;jettySize=auto;html=1;startArrow=ERmandOne;startFill=0;endArrow=ERoneToMany;endFill=0;entryX=0.994;entryY=0.054;entryDx=0;entryDy=0;entryPerimeter=0;exitX=0.684;exitY=1.053;exitDx=0;exitDy=0;exitPerimeter=0;" edge="1" parent="1" source="7yc6JBUBzXzbdUPnqlZ5-27" target="7yc6JBUBzXzbdUPnqlZ5-77">
          <mxGeometry relative="1" as="geometry">
            <mxPoint x="300" y="1230" as="targetPoint" />
            <mxPoint x="730" y="696" as="sourcePoint" />
            <Array as="points">
              <mxPoint x="730" y="1220" />
              <mxPoint x="730" y="1210" />
              <mxPoint x="690" y="860" />
              <mxPoint x="410" y="1320" />
              <mxPoint x="730" y="880" />
            </Array>
          </mxGeometry>
        </mxCell>
        <mxCell id="7yc6JBUBzXzbdUPnqlZ5-23" value="FACULTY" style="swimlane;fontStyle=1;align=center;verticalAlign=top;childLayout=stackLayout;horizontal=1;startSize=26;horizontalStack=0;resizeParent=1;resizeLast=0;collapsible=1;marginBottom=0;rounded=0;shadow=0;strokeWidth=1;" vertex="1" parent="1">
          <mxGeometry x="620" y="595" width="160" height="104" as="geometry">
            <mxRectangle x="550" y="140" width="160" height="26" as="alternateBounds" />
          </mxGeometry>
        </mxCell>
        <mxCell id="7yc6JBUBzXzbdUPnqlZ5-24" value="FacultyID" style="text;align=left;verticalAlign=top;spacingLeft=4;spacingRight=4;overflow=hidden;rotatable=0;points=[[0,0.5],[1,0.5]];portConstraint=eastwest;" vertex="1" parent="7yc6JBUBzXzbdUPnqlZ5-23">
          <mxGeometry y="26" width="160" height="26" as="geometry" />
        </mxCell>
        <mxCell id="7yc6JBUBzXzbdUPnqlZ5-25" value="" style="endArrow=none;html=1;rounded=0;" edge="1" parent="7yc6JBUBzXzbdUPnqlZ5-23">
          <mxGeometry width="50" height="50" relative="1" as="geometry">
            <mxPoint x="2" y="51" as="sourcePoint" />
            <mxPoint x="92" y="51" as="targetPoint" />
          </mxGeometry>
        </mxCell>
        <mxCell id="7yc6JBUBzXzbdUPnqlZ5-26" value="Rank" style="text;align=left;verticalAlign=top;spacingLeft=4;spacingRight=4;overflow=hidden;rotatable=0;points=[[0,0.5],[1,0.5]];portConstraint=eastwest;rounded=0;shadow=0;html=0;" vertex="1" parent="7yc6JBUBzXzbdUPnqlZ5-23">
          <mxGeometry y="52" width="160" height="26" as="geometry" />
        </mxCell>
        <mxCell id="7yc6JBUBzXzbdUPnqlZ5-27" value="Join_DateÂ " style="text;align=left;verticalAlign=top;spacingLeft=4;spacingRight=4;overflow=hidden;rotatable=0;points=[[0,0.5],[1,0.5]];portConstraint=eastwest;rounded=0;shadow=0;html=0;" vertex="1" parent="7yc6JBUBzXzbdUPnqlZ5-23">
          <mxGeometry y="78" width="160" height="26" as="geometry" />
        </mxCell>
        <mxCell id="7yc6JBUBzXzbdUPnqlZ5-28" value="" style="endArrow=none;html=1;rounded=0;edgeStyle=orthogonalEdgeStyle;entryX=1;entryY=0.5;entryDx=0;entryDy=0;" edge="1" parent="1" target="7yc6JBUBzXzbdUPnqlZ5-13">
          <mxGeometry width="50" height="50" relative="1" as="geometry">
            <mxPoint x="690" y="595" as="sourcePoint" />
            <mxPoint x="800" y="485" as="targetPoint" />
            <Array as="points">
              <mxPoint x="690" y="490" />
              <mxPoint x="610" y="490" />
            </Array>
          </mxGeometry>
        </mxCell>
        <mxCell id="7yc6JBUBzXzbdUPnqlZ5-29" value="SCHOOL" style="swimlane;fontStyle=1;align=center;verticalAlign=top;childLayout=stackLayout;horizontal=1;startSize=26;horizontalStack=0;resizeParent=1;resizeLast=0;collapsible=1;marginBottom=0;rounded=0;shadow=0;strokeWidth=1;" vertex="1" parent="1">
          <mxGeometry x="120" y="380" width="160" height="80" as="geometry">
            <mxRectangle x="550" y="140" width="160" height="26" as="alternateBounds" />
          </mxGeometry>
        </mxCell>
        <mxCell id="7yc6JBUBzXzbdUPnqlZ5-30" value="SchoolID" style="text;align=left;verticalAlign=top;spacingLeft=4;spacingRight=4;overflow=hidden;rotatable=0;points=[[0,0.5],[1,0.5]];portConstraint=eastwest;" vertex="1" parent="7yc6JBUBzXzbdUPnqlZ5-29">
          <mxGeometry y="26" width="160" height="26" as="geometry" />
        </mxCell>
        <mxCell id="7yc6JBUBzXzbdUPnqlZ5-31" value="" style="endArrow=none;html=1;rounded=0;" edge="1" parent="7yc6JBUBzXzbdUPnqlZ5-29">
          <mxGeometry width="50" height="50" relative="1" as="geometry">
            <mxPoint x="2" y="51" as="sourcePoint" />
            <mxPoint x="92" y="51" as="targetPoint" />
          </mxGeometry>
        </mxCell>
        <mxCell id="7yc6JBUBzXzbdUPnqlZ5-32" value="School_Name" style="text;align=left;verticalAlign=top;spacingLeft=4;spacingRight=4;overflow=hidden;rotatable=0;points=[[0,0.5],[1,0.5]];portConstraint=eastwest;rounded=0;shadow=0;html=0;" vertex="1" parent="7yc6JBUBzXzbdUPnqlZ5-29">
          <mxGeometry y="52" width="160" height="26" as="geometry" />
        </mxCell>
        <mxCell id="7yc6JBUBzXzbdUPnqlZ5-33" value="" style="endArrow=ERmandOne;html=1;rounded=0;edgeStyle=elbowEdgeStyle;exitX=1;exitY=0.5;exitDx=0;exitDy=0;startArrow=ERmandOne;startFill=0;endFill=0;" edge="1" parent="1" source="7yc6JBUBzXzbdUPnqlZ5-30">
          <mxGeometry width="50" height="50" relative="1" as="geometry">
            <mxPoint x="400" y="480" as="sourcePoint" />
            <mxPoint x="400" y="642" as="targetPoint" />
          </mxGeometry>
        </mxCell>
        <mxCell id="7yc6JBUBzXzbdUPnqlZ5-34" value="Run by Dean" style="text;html=1;align=center;verticalAlign=middle;resizable=0;points=[];autosize=1;strokeColor=none;fillColor=none;" vertex="1" parent="1">
          <mxGeometry x="335" y="450" width="90" height="30" as="geometry" />
        </mxCell>
        <mxCell id="7yc6JBUBzXzbdUPnqlZ5-35" value="" style="edgeStyle=elbowEdgeStyle;rounded=0;orthogonalLoop=1;jettySize=auto;html=1;startArrow=ERzeroToMany;startFill=0;endArrow=ERmandOne;endFill=0;elbow=vertical;" edge="1" parent="1" target="7yc6JBUBzXzbdUPnqlZ5-102">
          <mxGeometry relative="1" as="geometry">
            <mxPoint x="31" y="614" as="sourcePoint" />
            <Array as="points">
              <mxPoint x="677" y="776" />
              <mxPoint x="263" y="763" />
              <mxPoint x="670" y="840" />
            </Array>
          </mxGeometry>
        </mxCell>
        <mxCell id="7yc6JBUBzXzbdUPnqlZ5-36" value="DEPARTMENT" style="swimlane;fontStyle=1;align=center;verticalAlign=top;childLayout=stackLayout;horizontal=1;startSize=26;horizontalStack=0;resizeParent=1;resizeLast=0;collapsible=1;marginBottom=0;rounded=0;shadow=0;strokeWidth=1;" vertex="1" parent="1">
          <mxGeometry x="130" y="670" width="160" height="82" as="geometry">
            <mxRectangle x="550" y="140" width="160" height="26" as="alternateBounds" />
          </mxGeometry>
        </mxCell>
        <mxCell id="7yc6JBUBzXzbdUPnqlZ5-37" value="DepartmentID" style="text;align=left;verticalAlign=top;spacingLeft=4;spacingRight=4;overflow=hidden;rotatable=0;points=[[0,0.5],[1,0.5]];portConstraint=eastwest;" vertex="1" parent="7yc6JBUBzXzbdUPnqlZ5-36">
          <mxGeometry y="26" width="160" height="26" as="geometry" />
        </mxCell>
        <mxCell id="7yc6JBUBzXzbdUPnqlZ5-38" value="" style="endArrow=none;html=1;rounded=0;" edge="1" parent="7yc6JBUBzXzbdUPnqlZ5-36">
          <mxGeometry width="50" height="50" relative="1" as="geometry">
            <mxPoint x="2" y="51" as="sourcePoint" />
            <mxPoint x="92" y="51" as="targetPoint" />
          </mxGeometry>
        </mxCell>
        <mxCell id="7yc6JBUBzXzbdUPnqlZ5-39" value="Department_Name" style="text;align=left;verticalAlign=top;spacingLeft=4;spacingRight=4;overflow=hidden;rotatable=0;points=[[0,0.5],[1,0.5]];portConstraint=eastwest;rounded=0;shadow=0;html=0;" vertex="1" parent="7yc6JBUBzXzbdUPnqlZ5-36">
          <mxGeometry y="52" width="160" height="26" as="geometry" />
        </mxCell>
        <mxCell id="7yc6JBUBzXzbdUPnqlZ5-40" value="" style="endArrow=ERoneToMany;html=1;rounded=0;edgeStyle=elbowEdgeStyle;entryX=0.994;entryY=0.951;entryDx=0;entryDy=0;entryPerimeter=0;exitX=1;exitY=0.5;exitDx=0;exitDy=0;startArrow=ERmandOne;startFill=0;endFill=0;" edge="1" parent="1" source="7yc6JBUBzXzbdUPnqlZ5-37" target="7yc6JBUBzXzbdUPnqlZ5-30">
          <mxGeometry width="50" height="50" relative="1" as="geometry">
            <mxPoint x="340" y="690" as="sourcePoint" />
            <mxPoint x="300" y="440" as="targetPoint" />
            <Array as="points">
              <mxPoint x="320" y="570" />
            </Array>
          </mxGeometry>
        </mxCell>
        <mxCell id="7yc6JBUBzXzbdUPnqlZ5-41" value="Contains" style="text;html=1;align=center;verticalAlign=middle;resizable=0;points=[];autosize=1;strokeColor=none;fillColor=none;" vertex="1" parent="1">
          <mxGeometry x="260" y="540" width="70" height="30" as="geometry" />
        </mxCell>
        <mxCell id="7yc6JBUBzXzbdUPnqlZ5-42" value="" style="endArrow=ERoneToMany;html=1;rounded=0;edgeStyle=elbowEdgeStyle;startArrow=ERmandOne;startFill=0;endFill=0;exitX=0.013;exitY=0.987;exitDx=0;exitDy=0;exitPerimeter=0;entryX=-0.002;entryY=0.816;entryDx=0;entryDy=0;entryPerimeter=0;" edge="1" parent="1" source="7yc6JBUBzXzbdUPnqlZ5-43" target="7yc6JBUBzXzbdUPnqlZ5-21">
          <mxGeometry width="50" height="50" relative="1" as="geometry">
            <mxPoint x="288" y="749" as="sourcePoint" />
            <mxPoint x="400" y="755" as="targetPoint" />
            <Array as="points">
              <mxPoint x="320" y="714.5" />
              <mxPoint x="384" y="714.5" />
              <mxPoint x="410" y="704.5" />
              <mxPoint x="410" y="724.5" />
              <mxPoint x="420" y="843.77" />
            </Array>
          </mxGeometry>
        </mxCell>
        <mxCell id="7yc6JBUBzXzbdUPnqlZ5-43" value="Managed by &lt;br style=&quot;font-size: 11px;&quot;&gt;Department Head&amp;nbsp;" style="text;html=1;align=center;verticalAlign=middle;resizable=0;points=[];autosize=1;strokeColor=none;fillColor=none;fontSize=11;" vertex="1" parent="1">
          <mxGeometry x="290" y="709" width="110" height="40" as="geometry" />
        </mxCell>
        <mxCell id="7yc6JBUBzXzbdUPnqlZ5-44" value="" style="endArrow=ERoneToMany;html=1;rounded=0;edgeStyle=orthogonalEdgeStyle;startArrow=ERmandOne;startFill=0;endFill=0;elbow=vertical;" edge="1" parent="1">
          <mxGeometry width="50" height="50" relative="1" as="geometry">
            <mxPoint x="280" y="753" as="sourcePoint" />
            <mxPoint x="694" y="698" as="targetPoint" />
            <Array as="points">
              <mxPoint x="280" y="820" />
              <mxPoint x="694" y="820" />
            </Array>
          </mxGeometry>
        </mxCell>
        <mxCell id="7yc6JBUBzXzbdUPnqlZ5-45" value="Have" style="text;html=1;align=center;verticalAlign=middle;resizable=0;points=[];autosize=1;strokeColor=none;fillColor=none;fontSize=11;" vertex="1" parent="1">
          <mxGeometry x="828" y="875" width="50" height="30" as="geometry" />
        </mxCell>
        <mxCell id="7yc6JBUBzXzbdUPnqlZ5-46" value="PROGRAM" style="swimlane;fontStyle=1;align=center;verticalAlign=top;childLayout=stackLayout;horizontal=1;startSize=26;horizontalStack=0;resizeParent=1;resizeLast=0;collapsible=1;marginBottom=0;rounded=0;shadow=0;strokeWidth=1;" vertex="1" parent="1">
          <mxGeometry x="-118" y="529" width="160" height="83" as="geometry">
            <mxRectangle x="550" y="140" width="160" height="26" as="alternateBounds" />
          </mxGeometry>
        </mxCell>
        <mxCell id="7yc6JBUBzXzbdUPnqlZ5-47" value="ProgramID" style="text;align=left;verticalAlign=top;spacingLeft=4;spacingRight=4;overflow=hidden;rotatable=0;points=[[0,0.5],[1,0.5]];portConstraint=eastwest;" vertex="1" parent="7yc6JBUBzXzbdUPnqlZ5-46">
          <mxGeometry y="26" width="160" height="26" as="geometry" />
        </mxCell>
        <mxCell id="7yc6JBUBzXzbdUPnqlZ5-48" value="" style="endArrow=none;html=1;rounded=0;" edge="1" parent="7yc6JBUBzXzbdUPnqlZ5-46">
          <mxGeometry width="50" height="50" relative="1" as="geometry">
            <mxPoint x="2" y="51" as="sourcePoint" />
            <mxPoint x="92" y="51" as="targetPoint" />
          </mxGeometry>
        </mxCell>
        <mxCell id="7yc6JBUBzXzbdUPnqlZ5-49" value="Program_Name" style="text;align=left;verticalAlign=top;spacingLeft=4;spacingRight=4;overflow=hidden;rotatable=0;points=[[0,0.5],[1,0.5]];portConstraint=eastwest;rounded=0;shadow=0;html=0;" vertex="1" parent="7yc6JBUBzXzbdUPnqlZ5-46">
          <mxGeometry y="52" width="160" height="26" as="geometry" />
        </mxCell>
        <mxCell id="7yc6JBUBzXzbdUPnqlZ5-50" value="" style="endArrow=ERoneToMany;html=1;rounded=0;edgeStyle=elbowEdgeStyle;startArrow=ERmandOne;startFill=0;endFill=0;entryX=1;entryY=0.5;entryDx=0;entryDy=0;exitX=0.75;exitY=0;exitDx=0;exitDy=0;" edge="1" parent="1" source="7yc6JBUBzXzbdUPnqlZ5-36" target="7yc6JBUBzXzbdUPnqlZ5-47">
          <mxGeometry width="50" height="50" relative="1" as="geometry">
            <mxPoint x="250" y="630" as="sourcePoint" />
            <mxPoint x="250" y="551" as="targetPoint" />
            <Array as="points">
              <mxPoint x="250" y="580" />
              <mxPoint x="280" y="602" />
              <mxPoint x="280" y="622" />
              <mxPoint x="290" y="741.27" />
            </Array>
          </mxGeometry>
        </mxCell>
        <mxCell id="7yc6JBUBzXzbdUPnqlZ5-51" value="Belongs to" style="text;html=1;align=center;verticalAlign=middle;resizable=0;points=[];autosize=1;strokeColor=none;fillColor=none;fontSize=11;" vertex="1" parent="1">
          <mxGeometry x="100" y="545" width="80" height="30" as="geometry" />
        </mxCell>
        <mxCell id="7yc6JBUBzXzbdUPnqlZ5-52" value="Employee Type" style="text;html=1;align=center;verticalAlign=middle;resizable=0;points=[];autosize=1;strokeColor=none;fillColor=none;fontSize=11;" vertex="1" parent="1">
          <mxGeometry x="585" y="430" width="100" height="30" as="geometry" />
        </mxCell>
        <mxCell id="7yc6JBUBzXzbdUPnqlZ5-53" value="&quot;A&quot;" style="text;html=1;align=center;verticalAlign=middle;resizable=0;points=[];autosize=1;strokeColor=none;fillColor=none;fontSize=11;" vertex="1" parent="1">
          <mxGeometry x="450" y="485" width="40" height="30" as="geometry" />
        </mxCell>
        <mxCell id="7yc6JBUBzXzbdUPnqlZ5-54" value="&quot;F&quot;" style="text;html=1;align=center;verticalAlign=middle;resizable=0;points=[];autosize=1;strokeColor=none;fillColor=none;fontSize=11;" vertex="1" parent="1">
          <mxGeometry x="680" y="485" width="40" height="30" as="geometry" />
        </mxCell>
        <mxCell id="7yc6JBUBzXzbdUPnqlZ5-55" value="PLO" style="swimlane;fontStyle=1;align=center;verticalAlign=top;childLayout=stackLayout;horizontal=1;startSize=26;horizontalStack=0;resizeParent=1;resizeLast=0;collapsible=1;marginBottom=0;rounded=0;shadow=0;strokeWidth=1;" vertex="1" parent="1">
          <mxGeometry x="-140" y="720" width="160" height="110" as="geometry">
            <mxRectangle x="550" y="140" width="160" height="26" as="alternateBounds" />
          </mxGeometry>
        </mxCell>
        <mxCell id="7yc6JBUBzXzbdUPnqlZ5-56" value="PLOID" style="text;align=left;verticalAlign=top;spacingLeft=4;spacingRight=4;overflow=hidden;rotatable=0;points=[[0,0.5],[1,0.5]];portConstraint=eastwest;" vertex="1" parent="7yc6JBUBzXzbdUPnqlZ5-55">
          <mxGeometry y="26" width="160" height="26" as="geometry" />
        </mxCell>
        <mxCell id="7yc6JBUBzXzbdUPnqlZ5-57" value="" style="endArrow=none;html=1;rounded=0;" edge="1" parent="7yc6JBUBzXzbdUPnqlZ5-55">
          <mxGeometry width="50" height="50" relative="1" as="geometry">
            <mxPoint x="2" y="51" as="sourcePoint" />
            <mxPoint x="92" y="51" as="targetPoint" />
          </mxGeometry>
        </mxCell>
        <mxCell id="7yc6JBUBzXzbdUPnqlZ5-58" value="PLO_Num" style="text;align=left;verticalAlign=top;spacingLeft=4;spacingRight=4;overflow=hidden;rotatable=0;points=[[0,0.5],[1,0.5]];portConstraint=eastwest;rounded=0;shadow=0;html=0;" vertex="1" parent="7yc6JBUBzXzbdUPnqlZ5-55">
          <mxGeometry y="52" width="160" height="28" as="geometry" />
        </mxCell>
        <mxCell id="7yc6JBUBzXzbdUPnqlZ5-59" value="&amp;nbsp;Details" style="text;html=1;align=left;verticalAlign=top;resizable=0;points=[];autosize=1;strokeColor=none;fillColor=none;" vertex="1" parent="7yc6JBUBzXzbdUPnqlZ5-55">
          <mxGeometry y="80" width="160" height="30" as="geometry" />
        </mxCell>
        <mxCell id="7yc6JBUBzXzbdUPnqlZ5-60" value="" style="endArrow=ERoneToMany;html=1;rounded=0;edgeStyle=elbowEdgeStyle;exitX=0;exitY=0.5;exitDx=0;exitDy=0;startArrow=ERmandOne;startFill=0;endFill=0;entryX=0.01;entryY=0.563;entryDx=0;entryDy=0;entryPerimeter=0;" edge="1" parent="1" source="7yc6JBUBzXzbdUPnqlZ5-47" target="7yc6JBUBzXzbdUPnqlZ5-59">
          <mxGeometry width="50" height="50" relative="1" as="geometry">
            <mxPoint x="-300" y="595" as="sourcePoint" />
            <mxPoint x="-140" y="830" as="targetPoint" />
            <Array as="points">
              <mxPoint x="-176" y="823" />
              <mxPoint x="-210" y="670" />
            </Array>
          </mxGeometry>
        </mxCell>
        <mxCell id="7yc6JBUBzXzbdUPnqlZ5-61" value="Contains" style="edgeLabel;html=1;align=center;verticalAlign=middle;resizable=0;points=[];fontSize=11;" vertex="1" connectable="0" parent="7yc6JBUBzXzbdUPnqlZ5-60">
          <mxGeometry x="-0.0759" y="-2" relative="1" as="geometry">
            <mxPoint as="offset" />
          </mxGeometry>
        </mxCell>
        <mxCell id="7yc6JBUBzXzbdUPnqlZ5-62" value="CO" style="swimlane;fontStyle=1;align=center;verticalAlign=top;childLayout=stackLayout;horizontal=1;startSize=26;horizontalStack=0;resizeParent=1;resizeLast=0;collapsible=1;marginBottom=0;rounded=0;shadow=0;strokeWidth=1;" vertex="1" parent="1">
          <mxGeometry x="-140" y="970" width="160" height="80" as="geometry">
            <mxRectangle x="550" y="140" width="160" height="26" as="alternateBounds" />
          </mxGeometry>
        </mxCell>
        <mxCell id="7yc6JBUBzXzbdUPnqlZ5-63" value="COID" style="text;align=left;verticalAlign=top;spacingLeft=4;spacingRight=4;overflow=hidden;rotatable=0;points=[[0,0.5],[1,0.5]];portConstraint=eastwest;" vertex="1" parent="7yc6JBUBzXzbdUPnqlZ5-62">
          <mxGeometry y="26" width="160" height="26" as="geometry" />
        </mxCell>
        <mxCell id="7yc6JBUBzXzbdUPnqlZ5-64" value="" style="endArrow=none;html=1;rounded=0;" edge="1" parent="7yc6JBUBzXzbdUPnqlZ5-62">
          <mxGeometry width="50" height="50" relative="1" as="geometry">
            <mxPoint x="2" y="51" as="sourcePoint" />
            <mxPoint x="92" y="51" as="targetPoint" />
          </mxGeometry>
        </mxCell>
        <mxCell id="7yc6JBUBzXzbdUPnqlZ5-65" value="CO_Num" style="text;align=left;verticalAlign=top;spacingLeft=4;spacingRight=4;overflow=hidden;rotatable=0;points=[[0,0.5],[1,0.5]];portConstraint=eastwest;rounded=0;shadow=0;html=0;" vertex="1" parent="7yc6JBUBzXzbdUPnqlZ5-62">
          <mxGeometry y="52" width="160" height="28" as="geometry" />
        </mxCell>
        <mxCell id="7yc6JBUBzXzbdUPnqlZ5-66" value="" style="endArrow=ERoneToMany;html=1;rounded=0;edgeStyle=elbowEdgeStyle;startArrow=ERmandOne;startFill=0;endFill=0;entryX=0.439;entryY=-0.001;entryDx=0;entryDy=0;entryPerimeter=0;exitX=0.439;exitY=0.967;exitDx=0;exitDy=0;exitPerimeter=0;" edge="1" parent="1" source="7yc6JBUBzXzbdUPnqlZ5-59" target="7yc6JBUBzXzbdUPnqlZ5-62">
          <mxGeometry width="50" height="50" relative="1" as="geometry">
            <mxPoint x="-70" y="835" as="sourcePoint" />
            <mxPoint x="-70" y="950" as="targetPoint" />
            <Array as="points">
              <mxPoint x="-70" y="920" />
              <mxPoint x="39.99999999999997" y="921" />
              <mxPoint x="69.99999999999997" y="911" />
              <mxPoint x="69.99999999999997" y="931" />
              <mxPoint x="79.99999999999997" y="1050.27" />
            </Array>
          </mxGeometry>
        </mxCell>
        <mxCell id="7yc6JBUBzXzbdUPnqlZ5-67" value="COURSE" style="swimlane;fontStyle=1;align=center;verticalAlign=top;childLayout=stackLayout;horizontal=1;startSize=26;horizontalStack=0;resizeParent=1;resizeLast=0;collapsible=1;marginBottom=0;rounded=0;shadow=0;strokeWidth=1;" vertex="1" parent="1">
          <mxGeometry x="130" y="910" width="160" height="153" as="geometry">
            <mxRectangle x="550" y="140" width="160" height="26" as="alternateBounds" />
          </mxGeometry>
        </mxCell>
        <mxCell id="7yc6JBUBzXzbdUPnqlZ5-68" value="CourseID" style="text;align=left;verticalAlign=top;spacingLeft=4;spacingRight=4;overflow=hidden;rotatable=0;points=[[0,0.5],[1,0.5]];portConstraint=eastwest;" vertex="1" parent="7yc6JBUBzXzbdUPnqlZ5-67">
          <mxGeometry y="26" width="160" height="34" as="geometry" />
        </mxCell>
        <mxCell id="7yc6JBUBzXzbdUPnqlZ5-69" value="" style="endArrow=none;html=1;rounded=0;" edge="1" parent="7yc6JBUBzXzbdUPnqlZ5-67">
          <mxGeometry width="50" height="50" relative="1" as="geometry">
            <mxPoint x="2" y="51" as="sourcePoint" />
            <mxPoint x="92" y="51" as="targetPoint" />
          </mxGeometry>
        </mxCell>
        <mxCell id="7yc6JBUBzXzbdUPnqlZ5-70" value="Course_Name" style="text;align=left;verticalAlign=top;spacingLeft=4;spacingRight=4;overflow=hidden;rotatable=0;points=[[0,0.5],[1,0.5]];portConstraint=eastwest;rounded=0;shadow=0;html=0;" vertex="1" parent="7yc6JBUBzXzbdUPnqlZ5-67">
          <mxGeometry y="60" width="160" height="28" as="geometry" />
        </mxCell>
        <mxCell id="7yc6JBUBzXzbdUPnqlZ5-71" value="&amp;nbsp;Number_Of_Credits" style="text;html=1;align=left;verticalAlign=top;resizable=0;points=[];autosize=1;strokeColor=none;fillColor=none;" vertex="1" parent="7yc6JBUBzXzbdUPnqlZ5-67">
          <mxGeometry y="88" width="160" height="30" as="geometry" />
        </mxCell>
        <mxCell id="7yc6JBUBzXzbdUPnqlZ5-72" value="&amp;nbsp;Course_Type" style="text;html=1;align=left;verticalAlign=top;resizable=0;points=[];autosize=1;strokeColor=none;fillColor=none;" vertex="1" parent="7yc6JBUBzXzbdUPnqlZ5-67">
          <mxGeometry y="118" width="160" height="30" as="geometry" />
        </mxCell>
        <mxCell id="7yc6JBUBzXzbdUPnqlZ5-73" value="" style="endArrow=ERzeroToMany;html=1;rounded=0;edgeStyle=orthogonalEdgeStyle;exitX=1;exitY=0.5;exitDx=0;exitDy=0;startArrow=ERzeroToMany;startFill=0;endFill=0;" edge="1" parent="7yc6JBUBzXzbdUPnqlZ5-67" source="7yc6JBUBzXzbdUPnqlZ5-70">
          <mxGeometry width="50" height="50" relative="1" as="geometry">
            <mxPoint x="230" y="80" as="sourcePoint" />
            <mxPoint x="60" as="targetPoint" />
            <Array as="points">
              <mxPoint x="200" y="74" />
              <mxPoint x="200" y="-50" />
              <mxPoint x="60" y="-50" />
            </Array>
          </mxGeometry>
        </mxCell>
        <mxCell id="7yc6JBUBzXzbdUPnqlZ5-74" value="Prerequisites for" style="text;html=1;align=center;verticalAlign=middle;resizable=0;points=[];autosize=1;strokeColor=none;fillColor=none;" vertex="1" parent="1">
          <mxGeometry x="205" y="860" width="110" height="30" as="geometry" />
        </mxCell>
        <mxCell id="7yc6JBUBzXzbdUPnqlZ5-75" value="" style="edgeStyle=orthogonalEdgeStyle;rounded=0;orthogonalLoop=1;jettySize=auto;html=1;startArrow=ERoneToMany;startFill=0;endArrow=ERmandOne;endFill=0;" edge="1" parent="1" source="7yc6JBUBzXzbdUPnqlZ5-65" target="7yc6JBUBzXzbdUPnqlZ5-72">
          <mxGeometry relative="1" as="geometry">
            <Array as="points">
              <mxPoint x="130" y="1050" />
              <mxPoint x="130" y="1050" />
            </Array>
          </mxGeometry>
        </mxCell>
        <mxCell id="7yc6JBUBzXzbdUPnqlZ5-76" value="" style="edgeStyle=orthogonalEdgeStyle;rounded=0;orthogonalLoop=1;jettySize=auto;html=1;startArrow=ERzeroToMany;startFill=0;endArrow=ERmandOne;endFill=0;entryX=0.5;entryY=1;entryDx=0;entryDy=0;" edge="1" parent="1" source="7yc6JBUBzXzbdUPnqlZ5-77" target="7yc6JBUBzXzbdUPnqlZ5-67">
          <mxGeometry relative="1" as="geometry">
            <mxPoint x="210" y="1088" as="targetPoint" />
          </mxGeometry>
        </mxCell>
        <mxCell id="7yc6JBUBzXzbdUPnqlZ5-77" value="SECTION" style="swimlane;fontStyle=1;align=center;verticalAlign=top;childLayout=stackLayout;horizontal=1;startSize=26;horizontalStack=0;resizeParent=1;resizeLast=0;collapsible=1;marginBottom=0;rounded=0;shadow=0;strokeWidth=1;" vertex="1" parent="1">
          <mxGeometry x="130" y="1200" width="160" height="140" as="geometry">
            <mxRectangle x="550" y="140" width="160" height="26" as="alternateBounds" />
          </mxGeometry>
        </mxCell>
        <mxCell id="7yc6JBUBzXzbdUPnqlZ5-78" value="SectionID" style="text;align=left;verticalAlign=top;spacingLeft=4;spacingRight=4;overflow=hidden;rotatable=0;points=[[0,0.5],[1,0.5]];portConstraint=eastwest;" vertex="1" parent="7yc6JBUBzXzbdUPnqlZ5-77">
          <mxGeometry y="26" width="160" height="26" as="geometry" />
        </mxCell>
        <mxCell id="7yc6JBUBzXzbdUPnqlZ5-79" value="" style="endArrow=none;html=1;rounded=0;" edge="1" parent="7yc6JBUBzXzbdUPnqlZ5-77">
          <mxGeometry width="50" height="50" relative="1" as="geometry">
            <mxPoint x="2" y="51" as="sourcePoint" />
            <mxPoint x="92" y="51" as="targetPoint" />
          </mxGeometry>
        </mxCell>
        <mxCell id="7yc6JBUBzXzbdUPnqlZ5-80" value="Section_Num" style="text;align=left;verticalAlign=top;spacingLeft=4;spacingRight=4;overflow=hidden;rotatable=0;points=[[0,0.5],[1,0.5]];portConstraint=eastwest;rounded=0;shadow=0;html=0;" vertex="1" parent="7yc6JBUBzXzbdUPnqlZ5-77">
          <mxGeometry y="52" width="160" height="28" as="geometry" />
        </mxCell>
        <mxCell id="7yc6JBUBzXzbdUPnqlZ5-81" value="&amp;nbsp;Semester" style="text;html=1;align=left;verticalAlign=top;resizable=0;points=[];autosize=1;strokeColor=none;fillColor=none;" vertex="1" parent="7yc6JBUBzXzbdUPnqlZ5-77">
          <mxGeometry y="80" width="160" height="30" as="geometry" />
        </mxCell>
        <mxCell id="7yc6JBUBzXzbdUPnqlZ5-82" value="&amp;nbsp;Year" style="text;html=1;align=left;verticalAlign=top;resizable=0;points=[];autosize=1;strokeColor=none;fillColor=none;" vertex="1" parent="7yc6JBUBzXzbdUPnqlZ5-77">
          <mxGeometry y="110" width="160" height="30" as="geometry" />
        </mxCell>
        <mxCell id="7yc6JBUBzXzbdUPnqlZ5-83" value="Has" style="text;html=1;align=center;verticalAlign=middle;resizable=0;points=[];autosize=1;strokeColor=none;fillColor=none;" vertex="1" parent="1">
          <mxGeometry x="210" y="1135" width="40" height="30" as="geometry" />
        </mxCell>
        <mxCell id="7yc6JBUBzXzbdUPnqlZ5-84" value="QUESTION" style="swimlane;fontStyle=1;align=center;verticalAlign=top;childLayout=stackLayout;horizontal=1;startSize=26;horizontalStack=0;resizeParent=1;resizeLast=0;collapsible=1;marginBottom=0;rounded=0;shadow=0;strokeWidth=1;" vertex="1" parent="1">
          <mxGeometry x="-154" y="1262" width="160" height="194" as="geometry">
            <mxRectangle x="550" y="140" width="160" height="26" as="alternateBounds" />
          </mxGeometry>
        </mxCell>
        <mxCell id="7yc6JBUBzXzbdUPnqlZ5-85" value="QuestionID" style="text;align=left;verticalAlign=top;spacingLeft=4;spacingRight=4;overflow=hidden;rotatable=0;points=[[0,0.5],[1,0.5]];portConstraint=eastwest;" vertex="1" parent="7yc6JBUBzXzbdUPnqlZ5-84">
          <mxGeometry y="26" width="160" height="26" as="geometry" />
        </mxCell>
        <mxCell id="7yc6JBUBzXzbdUPnqlZ5-86" value="" style="endArrow=none;html=1;rounded=0;" edge="1" parent="7yc6JBUBzXzbdUPnqlZ5-84">
          <mxGeometry width="50" height="50" relative="1" as="geometry">
            <mxPoint x="2" y="51" as="sourcePoint" />
            <mxPoint x="92" y="51" as="targetPoint" />
          </mxGeometry>
        </mxCell>
        <mxCell id="7yc6JBUBzXzbdUPnqlZ5-87" value="Assessment_Name" style="text;align=left;verticalAlign=top;spacingLeft=4;spacingRight=4;overflow=hidden;rotatable=0;points=[[0,0.5],[1,0.5]];portConstraint=eastwest;rounded=0;shadow=0;html=0;" vertex="1" parent="7yc6JBUBzXzbdUPnqlZ5-84">
          <mxGeometry y="52" width="160" height="26" as="geometry" />
        </mxCell>
        <mxCell id="7yc6JBUBzXzbdUPnqlZ5-88" value="Total_Marks" style="text;align=left;verticalAlign=top;spacingLeft=4;spacingRight=4;overflow=hidden;rotatable=0;points=[[0,0.5],[1,0.5]];portConstraint=eastwest;rounded=0;shadow=0;html=0;" vertex="1" parent="7yc6JBUBzXzbdUPnqlZ5-84">
          <mxGeometry y="78" width="160" height="26" as="geometry" />
        </mxCell>
        <mxCell id="7yc6JBUBzXzbdUPnqlZ5-89" value="Weight" style="text;align=left;verticalAlign=top;spacingLeft=4;spacingRight=4;overflow=hidden;rotatable=0;points=[[0,0.5],[1,0.5]];portConstraint=eastwest;" vertex="1" parent="7yc6JBUBzXzbdUPnqlZ5-84">
          <mxGeometry y="104" width="160" height="28" as="geometry" />
        </mxCell>
        <mxCell id="7yc6JBUBzXzbdUPnqlZ5-90" value="QuestionNum" style="text;align=left;verticalAlign=top;spacingLeft=4;spacingRight=4;overflow=hidden;rotatable=0;points=[[0,0.5],[1,0.5]];portConstraint=eastwest;" vertex="1" parent="7yc6JBUBzXzbdUPnqlZ5-84">
          <mxGeometry y="132" width="160" height="26" as="geometry" />
        </mxCell>
        <mxCell id="7yc6JBUBzXzbdUPnqlZ5-91" value="Question" style="text;align=left;verticalAlign=top;spacingLeft=4;spacingRight=4;overflow=hidden;rotatable=0;points=[[0,0.5],[1,0.5]];portConstraint=eastwest;" vertex="1" parent="7yc6JBUBzXzbdUPnqlZ5-84">
          <mxGeometry y="158" width="160" height="30" as="geometry" />
        </mxCell>
        <mxCell id="7yc6JBUBzXzbdUPnqlZ5-92" value="" style="edgeStyle=orthogonalEdgeStyle;rounded=0;orthogonalLoop=1;jettySize=auto;html=1;startArrow=ERzeroToMany;startFill=0;endArrow=ERmandOne;endFill=0;exitX=0.75;exitY=0;exitDx=0;exitDy=0;" edge="1" parent="1" source="7yc6JBUBzXzbdUPnqlZ5-84" target="7yc6JBUBzXzbdUPnqlZ5-65">
          <mxGeometry relative="1" as="geometry">
            <mxPoint x="-90" y="1190" as="sourcePoint" />
            <mxPoint x="-47" y="1057" as="targetPoint" />
            <Array as="points">
              <mxPoint x="-34" y="1227" />
              <mxPoint x="-34" y="1227" />
            </Array>
          </mxGeometry>
        </mxCell>
        <mxCell id="7yc6JBUBzXzbdUPnqlZ5-93" value="Maps With" style="text;html=1;align=center;verticalAlign=middle;resizable=0;points=[];autosize=1;strokeColor=none;fillColor=none;" vertex="1" parent="1">
          <mxGeometry x="-118" y="1160" width="80" height="30" as="geometry" />
        </mxCell>
        <mxCell id="7yc6JBUBzXzbdUPnqlZ5-94" value="Contains" style="text;html=1;align=center;verticalAlign=middle;resizable=0;points=[];autosize=1;strokeColor=none;fillColor=none;" vertex="1" parent="1">
          <mxGeometry x="35" y="1012" width="70" height="30" as="geometry" />
        </mxCell>
        <mxCell id="7yc6JBUBzXzbdUPnqlZ5-95" value="EVALUATION" style="swimlane;fontStyle=1;align=center;verticalAlign=top;childLayout=stackLayout;horizontal=1;startSize=26;horizontalStack=0;resizeParent=1;resizeLast=0;collapsible=1;marginBottom=0;rounded=0;shadow=0;strokeWidth=1;" vertex="1" parent="1">
          <mxGeometry x="130" y="1490" width="160" height="80" as="geometry">
            <mxRectangle x="550" y="140" width="160" height="26" as="alternateBounds" />
          </mxGeometry>
        </mxCell>
        <mxCell id="7yc6JBUBzXzbdUPnqlZ5-96" value="EvaluationID" style="text;align=left;verticalAlign=top;spacingLeft=4;spacingRight=4;overflow=hidden;rotatable=0;points=[[0,0.5],[1,0.5]];portConstraint=eastwest;" vertex="1" parent="7yc6JBUBzXzbdUPnqlZ5-95">
          <mxGeometry y="26" width="160" height="26" as="geometry" />
        </mxCell>
        <mxCell id="7yc6JBUBzXzbdUPnqlZ5-97" value="" style="endArrow=none;html=1;rounded=0;" edge="1" parent="7yc6JBUBzXzbdUPnqlZ5-95">
          <mxGeometry width="50" height="50" relative="1" as="geometry">
            <mxPoint x="2" y="51" as="sourcePoint" />
            <mxPoint x="92" y="51" as="targetPoint" />
          </mxGeometry>
        </mxCell>
        <mxCell id="7yc6JBUBzXzbdUPnqlZ5-98" value="Obtained_Marks" style="text;align=left;verticalAlign=top;spacingLeft=4;spacingRight=4;overflow=hidden;rotatable=0;points=[[0,0.5],[1,0.5]];portConstraint=eastwest;rounded=0;shadow=0;html=0;" vertex="1" parent="7yc6JBUBzXzbdUPnqlZ5-95">
          <mxGeometry y="52" width="160" height="28" as="geometry" />
        </mxCell>
        <mxCell id="7yc6JBUBzXzbdUPnqlZ5-99" value="" style="edgeStyle=elbowEdgeStyle;rounded=0;orthogonalLoop=1;jettySize=auto;html=1;startArrow=ERmandOne;startFill=0;endArrow=ERoneToMany;endFill=0;entryX=0;entryY=0.5;entryDx=0;entryDy=0;exitX=1;exitY=0.5;exitDx=0;exitDy=0;" edge="1" parent="1" source="7yc6JBUBzXzbdUPnqlZ5-91" target="7yc6JBUBzXzbdUPnqlZ5-98">
          <mxGeometry relative="1" as="geometry" />
        </mxCell>
        <mxCell id="7yc6JBUBzXzbdUPnqlZ5-100" value="Have" style="text;html=1;align=center;verticalAlign=middle;resizable=0;points=[];autosize=1;strokeColor=none;fillColor=none;" vertex="1" parent="1">
          <mxGeometry x="25" y="1507" width="50" height="30" as="geometry" />
        </mxCell>
        <mxCell id="7yc6JBUBzXzbdUPnqlZ5-101" value="Taught By" style="text;html=1;align=center;verticalAlign=middle;resizable=0;points=[];autosize=1;strokeColor=none;fillColor=none;" vertex="1" parent="1">
          <mxGeometry x="430" y="1183" width="80" height="30" as="geometry" />
        </mxCell>
        <mxCell id="7yc6JBUBzXzbdUPnqlZ5-102" value="STUDENT" style="swimlane;fontStyle=1;align=center;verticalAlign=top;childLayout=stackLayout;horizontal=1;startSize=26;horizontalStack=0;resizeParent=1;resizeLast=0;collapsible=1;marginBottom=0;rounded=0;shadow=0;strokeWidth=1;" vertex="1" parent="1">
          <mxGeometry x="760" y="1240" width="160" height="277" as="geometry">
            <mxRectangle x="550" y="140" width="160" height="26" as="alternateBounds" />
          </mxGeometry>
        </mxCell>
        <mxCell id="7yc6JBUBzXzbdUPnqlZ5-103" value="StudentID" style="text;align=left;verticalAlign=top;spacingLeft=4;spacingRight=4;overflow=hidden;rotatable=0;points=[[0,0.5],[1,0.5]];portConstraint=eastwest;" vertex="1" parent="7yc6JBUBzXzbdUPnqlZ5-102">
          <mxGeometry y="26" width="160" height="26" as="geometry" />
        </mxCell>
        <mxCell id="7yc6JBUBzXzbdUPnqlZ5-104" value="" style="endArrow=none;html=1;rounded=0;" edge="1" parent="7yc6JBUBzXzbdUPnqlZ5-102">
          <mxGeometry width="50" height="50" relative="1" as="geometry">
            <mxPoint x="2" y="51" as="sourcePoint" />
            <mxPoint x="92" y="51" as="targetPoint" />
          </mxGeometry>
        </mxCell>
        <mxCell id="7yc6JBUBzXzbdUPnqlZ5-105" value="First_Name" style="text;align=left;verticalAlign=top;spacingLeft=4;spacingRight=4;overflow=hidden;rotatable=0;points=[[0,0.5],[1,0.5]];portConstraint=eastwest;rounded=0;shadow=0;html=0;" vertex="1" parent="7yc6JBUBzXzbdUPnqlZ5-102">
          <mxGeometry y="52" width="160" height="26" as="geometry" />
        </mxCell>
        <mxCell id="7yc6JBUBzXzbdUPnqlZ5-106" value="Last_Name" style="text;align=left;verticalAlign=top;spacingLeft=4;spacingRight=4;overflow=hidden;rotatable=0;points=[[0,0.5],[1,0.5]];portConstraint=eastwest;rounded=0;shadow=0;html=0;" vertex="1" parent="7yc6JBUBzXzbdUPnqlZ5-102">
          <mxGeometry y="78" width="160" height="26" as="geometry" />
        </mxCell>
        <mxCell id="7yc6JBUBzXzbdUPnqlZ5-107" value="Date_Of_Birth" style="text;align=left;verticalAlign=top;spacingLeft=4;spacingRight=4;overflow=hidden;rotatable=0;points=[[0,0.5],[1,0.5]];portConstraint=eastwest;rounded=0;shadow=0;html=0;" vertex="1" parent="7yc6JBUBzXzbdUPnqlZ5-102">
          <mxGeometry y="104" width="160" height="26" as="geometry" />
        </mxCell>
        <mxCell id="7yc6JBUBzXzbdUPnqlZ5-108" value="Gender&#xa;" style="text;align=left;verticalAlign=top;spacingLeft=4;spacingRight=4;overflow=hidden;rotatable=0;points=[[0,0.5],[1,0.5]];portConstraint=eastwest;rounded=0;shadow=0;html=0;" vertex="1" parent="7yc6JBUBzXzbdUPnqlZ5-102">
          <mxGeometry y="130" width="160" height="26" as="geometry" />
        </mxCell>
        <mxCell id="7yc6JBUBzXzbdUPnqlZ5-109" value="Email" style="text;align=left;verticalAlign=top;spacingLeft=4;spacingRight=4;overflow=hidden;rotatable=0;points=[[0,0.5],[1,0.5]];portConstraint=eastwest;" vertex="1" parent="7yc6JBUBzXzbdUPnqlZ5-102">
          <mxGeometry y="156" width="160" height="26" as="geometry" />
        </mxCell>
        <mxCell id="7yc6JBUBzXzbdUPnqlZ5-110" value="Phone" style="text;align=left;verticalAlign=top;spacingLeft=4;spacingRight=4;overflow=hidden;rotatable=0;points=[[0,0.5],[1,0.5]];portConstraint=eastwest;" vertex="1" parent="7yc6JBUBzXzbdUPnqlZ5-102">
          <mxGeometry y="182" width="160" height="28" as="geometry" />
        </mxCell>
        <mxCell id="7yc6JBUBzXzbdUPnqlZ5-111" value="&amp;nbsp;Address" style="text;html=1;align=left;verticalAlign=top;resizable=0;points=[];autosize=1;strokeColor=none;fillColor=none;" vertex="1" parent="7yc6JBUBzXzbdUPnqlZ5-102">
          <mxGeometry y="210" width="160" height="30" as="geometry" />
        </mxCell>
        <mxCell id="7yc6JBUBzXzbdUPnqlZ5-112" value="&amp;nbsp;Enrollment_Date" style="text;html=1;align=left;verticalAlign=top;resizable=0;points=[];autosize=1;strokeColor=none;fillColor=none;" vertex="1" parent="7yc6JBUBzXzbdUPnqlZ5-102">
          <mxGeometry y="240" width="160" height="30" as="geometry" />
        </mxCell>
        <mxCell id="7yc6JBUBzXzbdUPnqlZ5-113" value="REGISTRATION" style="swimlane;fontStyle=1;align=center;verticalAlign=top;childLayout=stackLayout;horizontal=1;startSize=26;horizontalStack=0;resizeParent=1;resizeLast=0;collapsible=1;marginBottom=0;rounded=0;shadow=0;strokeWidth=1;" vertex="1" parent="1">
          <mxGeometry x="460" y="1660" width="160" height="111" as="geometry">
            <mxRectangle x="550" y="140" width="160" height="26" as="alternateBounds" />
          </mxGeometry>
        </mxCell>
        <mxCell id="7yc6JBUBzXzbdUPnqlZ5-114" value="Â RegistrationID" style="text;align=left;verticalAlign=top;spacingLeft=4;spacingRight=4;overflow=hidden;rotatable=0;points=[[0,0.5],[1,0.5]];portConstraint=eastwest;" vertex="1" parent="7yc6JBUBzXzbdUPnqlZ5-113">
          <mxGeometry y="26" width="160" height="26" as="geometry" />
        </mxCell>
        <mxCell id="7yc6JBUBzXzbdUPnqlZ5-115" value="" style="endArrow=none;html=1;rounded=0;" edge="1" parent="7yc6JBUBzXzbdUPnqlZ5-113">
          <mxGeometry width="50" height="50" relative="1" as="geometry">
            <mxPoint x="2" y="51" as="sourcePoint" />
            <mxPoint x="92" y="51" as="targetPoint" />
          </mxGeometry>
        </mxCell>
        <mxCell id="7yc6JBUBzXzbdUPnqlZ5-116" value="Semester" style="text;align=left;verticalAlign=top;spacingLeft=4;spacingRight=4;overflow=hidden;rotatable=0;points=[[0,0.5],[1,0.5]];portConstraint=eastwest;rounded=0;shadow=0;html=0;" vertex="1" parent="7yc6JBUBzXzbdUPnqlZ5-113">
          <mxGeometry y="52" width="160" height="28" as="geometry" />
        </mxCell>
        <mxCell id="7yc6JBUBzXzbdUPnqlZ5-117" value="&amp;nbsp;Year" style="text;html=1;align=left;verticalAlign=top;resizable=0;points=[];autosize=1;strokeColor=none;fillColor=none;" vertex="1" parent="7yc6JBUBzXzbdUPnqlZ5-113">
          <mxGeometry y="80" width="160" height="30" as="geometry" />
        </mxCell>
        <mxCell id="7yc6JBUBzXzbdUPnqlZ5-118" value="" style="edgeStyle=elbowEdgeStyle;rounded=0;orthogonalLoop=1;jettySize=auto;html=1;startArrow=ERzeroToMany;startFill=0;endArrow=ERmandOne;endFill=0;" edge="1" parent="1" source="7yc6JBUBzXzbdUPnqlZ5-116">
          <mxGeometry relative="1" as="geometry">
            <Array as="points">
              <mxPoint x="811" y="1664" />
              <mxPoint x="720" y="1610" />
              <mxPoint x="700" y="1540" />
            </Array>
            <mxPoint x="811" y="1521" as="targetPoint" />
          </mxGeometry>
        </mxCell>
        <mxCell id="7yc6JBUBzXzbdUPnqlZ5-119" value="Performs" style="text;html=1;align=center;verticalAlign=middle;resizable=0;points=[];autosize=1;strokeColor=none;fillColor=none;" vertex="1" parent="1">
          <mxGeometry x="801" y="1576" width="70" height="30" as="geometry" />
        </mxCell>
        <mxCell id="7yc6JBUBzXzbdUPnqlZ5-120" value="" style="edgeStyle=elbowEdgeStyle;rounded=0;orthogonalLoop=1;jettySize=auto;html=1;startArrow=ERzeroToMany;startFill=0;endArrow=ERmandOne;endFill=0;exitX=0.89;exitY=1.022;exitDx=0;exitDy=0;exitPerimeter=0;" edge="1" parent="1" source="7yc6JBUBzXzbdUPnqlZ5-98" target="7yc6JBUBzXzbdUPnqlZ5-116">
          <mxGeometry relative="1" as="geometry">
            <Array as="points">
              <mxPoint x="272" y="1579" />
              <mxPoint x="279" y="1789" />
              <mxPoint x="339" y="1739" />
              <mxPoint x="275" y="1577" />
              <mxPoint x="283" y="1728" />
            </Array>
            <mxPoint x="272" y="1583" as="sourcePoint" />
          </mxGeometry>
        </mxCell>
        <mxCell id="7yc6JBUBzXzbdUPnqlZ5-121" value="Belongs To" style="text;html=1;align=center;verticalAlign=middle;resizable=0;points=[];autosize=1;strokeColor=none;fillColor=none;" vertex="1" parent="1">
          <mxGeometry x="335" y="1719" width="80" height="30" as="geometry" />
        </mxCell>
        <mxCell id="7yc6JBUBzXzbdUPnqlZ5-122" value="" style="edgeStyle=elbowEdgeStyle;rounded=0;orthogonalLoop=1;jettySize=auto;html=1;startArrow=ERzeroToMany;startFill=0;endArrow=ERmandOne;endFill=0;" edge="1" parent="1" source="7yc6JBUBzXzbdUPnqlZ5-114">
          <mxGeometry relative="1" as="geometry">
            <mxPoint x="290" y="1336" as="targetPoint" />
            <Array as="points">
              <mxPoint x="310" y="1331" />
              <mxPoint x="360" y="1520" />
            </Array>
          </mxGeometry>
        </mxCell>
        <mxCell id="7yc6JBUBzXzbdUPnqlZ5-123" value="Have" style="text;html=1;align=center;verticalAlign=middle;resizable=0;points=[];autosize=1;strokeColor=none;fillColor=none;" vertex="1" parent="1">
          <mxGeometry x="305" y="1344" width="50" height="30" as="geometry" />
        </mxCell>
        <mxCell id="7yc6JBUBzXzbdUPnqlZ5-124" value="Employs" style="text;html=1;align=center;verticalAlign=middle;resizable=0;points=[];autosize=1;strokeColor=none;fillColor=none;" vertex="1" parent="1">
          <mxGeometry x="224" y="781" width="64" height="26" as="geometry" />
        </mxCell>
        <mxCell id="7yc6JBUBzXzbdUPnqlZ5-125" value="COURSE OUTLNE" style="swimlane;fontStyle=1;align=center;verticalAlign=top;childLayout=stackLayout;horizontal=1;startSize=26;horizontalStack=0;resizeParent=1;resizeLast=0;collapsible=1;marginBottom=0;rounded=0;shadow=0;strokeWidth=1;" vertex="1" parent="1">
          <mxGeometry x="430" y="1250" width="275" height="294" as="geometry">
            <mxRectangle x="550" y="140" width="160" height="26" as="alternateBounds" />
          </mxGeometry>
        </mxCell>
        <mxCell id="7yc6JBUBzXzbdUPnqlZ5-126" value="CouseOutlneID" style="text;align=left;verticalAlign=top;spacingLeft=4;spacingRight=4;overflow=hidden;rotatable=0;points=[[0,0.5],[1,0.5]];portConstraint=eastwest;" vertex="1" parent="7yc6JBUBzXzbdUPnqlZ5-125">
          <mxGeometry y="26" width="275" height="26" as="geometry" />
        </mxCell>
        <mxCell id="7yc6JBUBzXzbdUPnqlZ5-127" value="" style="endArrow=none;html=1;rounded=0;" edge="1" parent="7yc6JBUBzXzbdUPnqlZ5-125">
          <mxGeometry width="50" height="50" relative="1" as="geometry">
            <mxPoint x="2" y="51" as="sourcePoint" />
            <mxPoint x="92" y="51" as="targetPoint" />
          </mxGeometry>
        </mxCell>
        <mxCell id="7yc6JBUBzXzbdUPnqlZ5-128" value="&amp;nbsp;Course_Description" style="text;html=1;align=left;verticalAlign=top;resizable=0;points=[];autosize=1;strokeColor=none;fillColor=none;" vertex="1" parent="7yc6JBUBzXzbdUPnqlZ5-125">
          <mxGeometry y="52" width="275" height="30" as="geometry" />
        </mxCell>
        <mxCell id="7yc6JBUBzXzbdUPnqlZ5-129" value="&amp;nbsp;{Course_Objective(Domain_and_level)}" style="text;html=1;align=left;verticalAlign=top;resizable=0;points=[];autosize=1;strokeColor=none;fillColor=none;" vertex="1" parent="7yc6JBUBzXzbdUPnqlZ5-125">
          <mxGeometry y="82" width="275" height="26" as="geometry" />
        </mxCell>
        <mxCell id="7yc6JBUBzXzbdUPnqlZ5-130" value="&amp;nbsp;Assessment_and_MarksDistribution" style="text;html=1;align=left;verticalAlign=top;resizable=0;points=[];autosize=1;strokeColor=none;fillColor=none;" vertex="1" parent="7yc6JBUBzXzbdUPnqlZ5-125">
          <mxGeometry y="108" width="275" height="30" as="geometry" />
        </mxCell>
        <mxCell id="7yc6JBUBzXzbdUPnqlZ5-131" value="&amp;nbsp;Grade_Conversion_Scheme" style="text;html=1;align=left;verticalAlign=top;resizable=0;points=[];autosize=1;strokeColor=none;fillColor=none;" vertex="1" parent="7yc6JBUBzXzbdUPnqlZ5-125">
          <mxGeometry y="138" width="275" height="30" as="geometry" />
        </mxCell>
        <mxCell id="7yc6JBUBzXzbdUPnqlZ5-132" value="&amp;nbsp;Required_Textbook" style="text;html=1;align=left;verticalAlign=top;resizable=0;points=[];autosize=1;strokeColor=none;fillColor=none;" vertex="1" parent="7yc6JBUBzXzbdUPnqlZ5-125">
          <mxGeometry y="168" width="275" height="30" as="geometry" />
        </mxCell>
        <mxCell id="7yc6JBUBzXzbdUPnqlZ5-133" value="&amp;nbsp;Course_Policy" style="text;html=1;align=left;verticalAlign=top;resizable=0;points=[];autosize=1;strokeColor=none;fillColor=none;" vertex="1" parent="7yc6JBUBzXzbdUPnqlZ5-125">
          <mxGeometry y="198" width="275" height="30" as="geometry" />
        </mxCell>
        <mxCell id="7yc6JBUBzXzbdUPnqlZ5-134" value="&amp;nbsp;University_Regulation_And_Code_Of_Conduct" style="text;html=1;align=left;verticalAlign=middle;resizable=0;points=[];autosize=1;strokeColor=none;fillColor=none;" vertex="1" parent="7yc6JBUBzXzbdUPnqlZ5-125">
          <mxGeometry y="228" width="275" height="30" as="geometry" />
        </mxCell>
        <mxCell id="7yc6JBUBzXzbdUPnqlZ5-135" value="{Class_and_Schedule,Topics_and_Reading}" style="text;html=1;align=left;verticalAlign=middle;resizable=0;points=[];autosize=1;strokeColor=none;fillColor=none;" vertex="1" parent="7yc6JBUBzXzbdUPnqlZ5-125">
          <mxGeometry y="258" width="275" height="30" as="geometry" />
        </mxCell>
        <mxCell id="7yc6JBUBzXzbdUPnqlZ5-136" style="edgeStyle=orthogonalEdgeStyle;rounded=0;orthogonalLoop=1;jettySize=auto;html=1;startArrow=ERoneToMany;startFill=0;endArrow=ERmandOne;endFill=0;" edge="1" parent="1">
          <mxGeometry relative="1" as="geometry">
            <mxPoint x="430" y="1295" as="targetPoint" />
            <mxPoint x="290" y="1294.9999999999998" as="sourcePoint" />
          </mxGeometry>
        </mxCell>
        <mxCell id="7yc6JBUBzXzbdUPnqlZ5-137" value="Has" style="text;html=1;align=center;verticalAlign=middle;resizable=0;points=[];autosize=1;strokeColor=none;fillColor=none;" vertex="1" parent="1">
          <mxGeometry x="330" y="1265" width="40" height="30" as="geometry" />
        </mxCell>
        <mxCell id="7yc6JBUBzXzbdUPnqlZ5-138" value="" style="endArrow=none;dashed=1;html=1;rounded=0;" edge="1" parent="1">
          <mxGeometry width="50" height="50" relative="1" as="geometry">
            <mxPoint x="-164" y="899" as="sourcePoint" />
            <mxPoint x="-72" y="899" as="targetPoint" />
          </mxGeometry>
        </mxCell>
        <mxCell id="7yc6JBUBzXzbdUPnqlZ5-139" value="PLO_CLO &lt;br&gt;co-relation" style="rounded=0;whiteSpace=wrap;html=1;" vertex="1" parent="1">
          <mxGeometry x="-267" y="868" width="120" height="60" as="geometry" />
        </mxCell>
        <mxCell id="7yc6JBUBzXzbdUPnqlZ5-140" value="Works for" style="text;html=1;strokeColor=none;fillColor=none;align=center;verticalAlign=middle;whiteSpace=wrap;rounded=0;" vertex="1" parent="1">
          <mxGeometry x="638" y="796" width="60" height="30" as="geometry" />
        </mxCell>
      </root>
    </mxGraphModel>
  </diagram>
</mxfile>
